<svg xmlns="http://www.w3.org/2000/svg" width="193.196" height="66.93" viewBox="0 0 193.196 66.93"><path fill="#B44A47" d="M182.01 11.74c-.205-1.647-22.933-2.88-31.16-2.88 0 0-17.894 1.337-24.272 2.983 0 0-15.734 5.038-17.585 6.89 0 0-5.656 3.086-13.987 3.086-9.72 0-13.984-3.087-13.984-3.087-1.85-1.852-17.656-6.89-17.656-6.89C56.988 10.197 39.13 8.86 39.13 8.86c-8.225 0-30.936 1.233-31.14 2.88-.206 1.645 5.06 9.358 5.06 9.358 2.468-.205 4.938 1.85 4.938 1.85 4.834 4.733 10.502 18.15 16.666 26.64 6.273 8.637 13.173 9.87 13.173 9.87 4.216 1.744 19.044 1.235 19.044 1.235 15.735-.104 20.297-21.288 20.297-21.288.104-1.44 2.702-8.434 2.702-8.434 2.774-3.29 5.137-2.98 5.137-2.98s2.365-.31 5.142 2.98c0 0 2.673 6.993 2.776 8.435 0 0 4.525 21.185 20.26 21.288 0 0 14.81.51 19.026-1.234 0 0 6.89-1.235 13.163-9.873 6.164-8.49 11.826-21.905 16.66-26.638 0 0 2.47-2.057 4.937-1.852 0 0 5.244-7.712 5.038-9.36zM78.89 51.85c-2.08 4.268-11.49 6.298-11.49 6.298-12.958 2.392-23.526-2.544-23.526-2.544-16.12-12.42-16.737-29.312-16.737-29.312 0-13.112 18.435-11.26 18.435-11.26 32.24.23 37.254 15.193 37.254 15.193 3.16 11.34-3.935 21.624-3.935 21.624zm67.255 3.754s-10.566 4.936-23.525 2.544c0 0-9.41-2.03-11.492-6.3 0 0-7.097-10.283-3.934-21.622 0 0 5.013-14.963 37.254-15.194 0 0 18.434-1.852 18.434 11.26 0 0-.618 16.893-16.737 29.312z"/></svg>